<svg xmlns="http://www.w3.org/2000/svg" viewBox="0 0 1200 630" fill="none">
  <rect width="1200" height="630" rx="12" fill="#F4F7FB"/>
  <rect x="80" y="80" width="400" height="470" rx="12" fill="#E2E8F0"/>
  <rect x="100" y="100" width="360" height="200" rx="8" fill="#D1D9E6"/>
  <circle cx="280" cy="200" r="40" fill="#1877F2" opacity="0.3"/>
  <rect x="100" y="320" width="240" height="16" rx="4" fill="#D1D9E6"/>
  <rect x="100" y="350" width="180" height="12" rx="4" fill="#D1D9E6"/>
  <rect x="100" y="380" width="320" height="12" rx="4" fill="#D1D9E6"/>
  <rect x="100" y="410" width="280" height="12" rx="4" fill="#D1D9E6"/>
  <circle cx="120" cy="470" r="16" fill="#1877F2" opacity="0.2"/>
  <rect x="146" y="462" width="120" height="8" rx="4" fill="#D1D9E6"/>
  <rect x="146" y="478" width="80" height="8" rx="4" fill="#D1D9E6"/>
  <!-- Map -->
  <rect x="540" y="80" width="580" height="470" rx="12" fill="#E8F0FE"/>
  <circle cx="750" cy="280" r="12" fill="#1877F2"/>
  <circle cx="830" cy="320" r="12" fill="#1877F2"/>
  <circle cx="690" cy="350" r="12" fill="#1877F2"/>
  <rect x="560" y="100" width="540" height="430" rx="8" fill="none" stroke="#1877F2" stroke-width="1" opacity="0.2"/>
  <!-- Pin drop -->
  <path d="M830 280 l0-40" stroke="#1877F2" stroke-width="2" opacity="0.4"/>
  <circle cx="830" cy="236" r="8" fill="#1877F2" opacity="0.4"/>
  <!-- Grid lines -->
  <line x1="560" y1="200" x2="1100" y2="200" stroke="#1877F2" opacity="0.08" stroke-width="1"/>
  <line x1="560" y1="300" x2="1100" y2="300" stroke="#1877F2" opacity="0.08" stroke-width="1"/>
  <line x1="560" y1="400" x2="1100" y2="400" stroke="#1877F2" opacity="0.08" stroke-width="1"/>
  <line x1="700" y1="100" x2="700" y2="530" stroke="#1877F2" opacity="0.08" stroke-width="1"/>
  <line x1="840" y1="100" x2="840" y2="530" stroke="#1877F2" opacity="0.08" stroke-width="1"/>
  <line x1="980" y1="100" x2="980" y2="530" stroke="#1877F2" opacity="0.08" stroke-width="1"/>
  <!-- Label -->
  <text x="600" y="590" font-family="Inter, sans-serif" font-size="14" fill="#6B7A90">PLACEHOLDER — Replace with custom hero illustration</text>
</svg>
